<?xml version="1.0" encoding="utf-8"?>
<!-- Generator: Adobe Illustrator 16.0.0, SVG Export Plug-In . SVG Version: 6.00 Build 0)  -->
<!DOCTYPE svg PUBLIC "-//W3C//DTD SVG 1.1//EN" "http://www.w3.org/Graphics/SVG/1.1/DTD/svg11.dtd">
<svg version="1.1" id="Layer_1" xmlns="http://www.w3.org/2000/svg" xmlns:xlink="http://www.w3.org/1999/xlink" x="0px" y="0px"
	 width="149.082px" height="149.078px" viewBox="0 0 149.082 149.078" enable-background="new 0 0 149.082 149.078"
	 xml:space="preserve">
<path fill-rule="evenodd" clip-rule="evenodd" d="M140.18,80.979c0.387-3.982,0.437-8.053,0.074-12.182
	c-0.36-4.131-1.114-8.133-2.188-11.991l8.193-4.803c-1.302-4.129-2.957-8.203-5.025-12.176c-2.068-3.975-4.456-7.671-7.091-11.106
	l-8.629,3.958c-5.182-6.297-11.489-11.591-18.59-15.601l2.395-9.184C101.503,3.823,93.025,1.149,84.284,0l-3.303,8.898
	c-3.984-0.386-8.054-0.432-12.186-0.072c-4.131,0.361-8.132,1.112-11.989,2.185l-4.802-8.194c-4.127,1.303-8.203,2.957-12.177,5.025
	c-3.973,2.068-7.665,4.456-11.101,7.092l3.953,8.63c-6.298,5.182-11.593,11.492-15.604,18.591l-9.184-2.394
	c-2.027,3.893-3.726,7.944-5.043,12.119l-0.027,0.087C1.506,56.142,0.572,60.433,0,64.786l8.898,3.31
	c-0.387,3.983-0.432,8.058-0.072,12.189c0.361,4.132,1.113,8.132,2.185,11.99l-8.191,4.801c1.301,4.13,2.956,8.204,5.023,12.176
	c2.068,3.973,4.458,7.666,7.092,11.104l8.632-3.952c5.181,6.297,11.492,11.593,18.592,15.602l-2.396,9.181
	c3.85,2.008,7.857,3.688,11.983,4.999l0.358,0.115c4.134,1.291,8.378,2.212,12.684,2.779l3.311-8.901
	c3.983,0.389,8.054,0.437,12.183,0.074c4.132-0.36,8.132-1.114,11.99-2.188l4.801,8.195c4.13-1.304,8.205-2.957,12.178-5.025
	c3.975-2.068,7.668-4.458,11.107-7.095l-3.956-8.627c6.297-5.183,11.593-11.489,15.601-18.59l9.18,2.395
	c4.072-7.816,6.746-16.297,7.898-25.035L140.18,80.979z M74.541,127.104c-29.031,0-52.565-23.533-52.565-52.564
	S45.51,21.974,74.541,21.974c29.031,0,52.565,23.535,52.565,52.565S103.572,127.104,74.541,127.104z"/>
</svg>
